<?xml version="1.0" encoding="UTF-8"?>
<svg width="24px" height="24px" viewBox="0 0 24 24" version="1.1" xmlns="http://www.w3.org/2000/svg" xmlns:xlink="http://www.w3.org/1999/xlink">
    <title>上传</title>
    <g id="SMore-Vilab-_运行平台_0420" stroke="none" stroke-width="1" fill="none" fill-rule="evenodd">
        <g id="设置_系统设置" transform="translate(-755.000000, -187.000000)">
            <g id="编组-20" transform="translate(133.000000, 64.000000)">
                <g id="编组-26备份" transform="translate(180.000000, 120.000000)">
                    <g id="上传" transform="translate(442.000000, 3.000000)">
                        <rect id="矩形" stroke-opacity="0.06" stroke="#000000" opacity="0" x="0.5" y="0.5" width="23" height="23"></rect>
                        <path d="M3,15 L3,21.3 C3,21.4104569 3.08954305,21.5 3.2,21.5 L20.8,21.5 C20.9104569,21.5 21,21.4104569 21,21.3 L21,15 C21,14.7238576 21.2238576,14.5 21.5,14.5 L22.5,14.5 C22.7761424,14.5 23,14.7238576 23,15 L23,23 C23,23.2761424 22.7761424,23.5 22.5,23.5 L1.5,23.5 C1.22385763,23.5 1,23.2761424 1,23 L1,15 C1,14.7238576 1.22385763,14.5 1.5,14.5 L2.5,14.5 C2.77614237,14.5 3,14.7238576 3,15 Z" id="路径" fill="#006DB2" fill-rule="nonzero"></path>
                        <path d="M21.5606602,9.64644617 L12.3535534,0.439339391 C12.1582912,0.244077245 11.8417088,0.244077245 11.6464466,0.439339391 L2.43933983,9.64644617 C2.24407768,9.84170832 2.24407768,10.1582908 2.43933983,10.353553 C2.53310802,10.4473211 2.66028497,10.4999996 2.79289322,10.4999996 L6.8,10.4999996 C6.91045695,10.4999996 7,10.5895426 7,10.6999996 L7,17.9999996 C7,18.2761419 7.22385763,18.4999996 7.5,18.4999996 L16.5,18.4999996 C16.7761424,18.4999996 17,18.2761419 17,17.9999996 L17,10.6999996 C17,10.5895426 17.0895431,10.4999996 17.2,10.4999996 L21.2071068,10.4999996 C21.4832492,10.4999996 21.7071068,10.2761419 21.7071068,9.99999956 C21.7071068,9.86739132 21.6544284,9.74021436 21.5606602,9.64644617 Z M12.3535534,3.26855295 L17.2435786,8.15857821 C17.3216835,8.23668306 17.3216835,8.36331606 17.2435786,8.44142092 C17.2060714,8.47892819 17.1552006,8.49999956 17.1021573,8.49999956 L15.5,8.49999956 C15.2238576,8.49999956 15,8.72385719 15,8.99999956 L15,16.2999996 C15,16.4104565 14.9104569,16.4999996 14.8,16.4999996 L9.2,16.4999996 C9.08954305,16.4999996 9,16.4104565 9,16.2999996 L9,8.99999956 C9,8.72385719 8.77614237,8.49999956 8.5,8.49999956 L6.89690385,8.49999956 C6.7864469,8.49999956 6.69690385,8.41045651 6.69690385,8.29999956 C6.69690385,8.24695006 6.71798013,8.19607385 6.75549515,8.15856555 L11.646415,3.2685213 C11.8417139,3.07332065 12.158272,3.07333482 12.3535534,3.26855295 Z" id="矩形" fill="#006DB2" fill-rule="nonzero"></path>
                    </g>
                </g>
            </g>
        </g>
    </g>
</svg>