<?xml version="1.0" encoding="UTF-8"?>
<svg width="20px" height="20px" viewBox="0 0 20 20" version="1.1" xmlns="http://www.w3.org/2000/svg" xmlns:xlink="http://www.w3.org/1999/xlink">
    <title>摄像机关闭</title>
    <defs>
        <rect id="path-1" x="0" y="0" width="20" height="20"></rect>
    </defs>
    <g id="摄像机关闭" stroke="none" stroke-width="1" fill="none" fill-rule="evenodd">
        <g id="隐藏">
            <mask id="mask-2" fill="white">
                <use xlink:href="#path-1"></use>
            </mask>
            <use id="矩形" fill="#000000" fill-rule="nonzero" opacity="0" xlink:href="#path-1"></use>
            <g id="相机" mask="url(#mask-2)" fill="#000000" fill-rule="nonzero" opacity="0">
                <g transform="translate(0.000000, 2.000000)" id="矩形">
                    <rect x="0" y="0" width="20" height="16"></rect>
                </g>
            </g>
        </g>
        <path d="M19.2,5.745067 L16.3730667,7.377333 C16.0176,7.58266633 15.5730667,7.32613366 15.5730667,6.915467 L15.5730667,4.96053333 C15.5730667,4.37386666 15.0930667,3.89386667 14.5064,3.89386667 L1.06666667,3.89386667 C0.48,3.89386667 0,4.37386667 0,4.96053333 L0,15.3053333 C0,15.892 0.48,16.372 1.06666667,16.372 L14.5064,16.372 C15.0930667,16.372 15.5730667,15.892 15.5730667,15.3053333 L15.5730667,13.350667 C15.5730667,12.9400003 16.0176,12.6834667 16.3730667,12.8888 L19.2,14.5208 C19.5554667,14.7261333 20,14.4695997 20,14.058933 L20,6.206933 C20,5.796533 19.5554667,5.53973366 19.2,5.745067 Z M1,6 C1,5.44771525 1.44771525,5 2,5 C2.55228475,5 3,5.44771525 3,6 C3,6.55228475 2.55228475,7 2,7 C1.44771525,7 1,6.55228475 1,6 Z" id="形状" fill-opacity="0.6" fill="#000000" fill-rule="nonzero"></path>
    </g>
</svg>