<?xml version="1.0" encoding="UTF-8"?>
<svg width="20px" height="20px" viewBox="0 0 20 20" version="1.1" xmlns="http://www.w3.org/2000/svg" xmlns:xlink="http://www.w3.org/1999/xlink">
    <title>导航/通讯设置</title>
    <g id="导航/通讯设置" stroke="none" stroke-width="1" fill="none" fill-rule="evenodd" opacity="0.5">
        <g id="编组" transform="translate(1.000000, 1.000000)">
            <path d="M15.1871843,2.81281566 C18.4499518,6.07558313 18.5973026,11.2740224 15.6292367,14.7116247 L14.6525912,13.5408857 C16.9453666,10.6939495 16.7700109,6.51696262 14.1265242,3.87347584 C11.295223,1.04217472 6.70477695,1.04217472 3.87347584,3.87347584 C1.22998906,6.51696262 1.05463338,10.6939495 3.34740882,13.5408857 L2.3707633,14.7116247 C-0.597302594,11.2740224 -0.449951805,6.07558313 2.81281566,2.81281566 C6.22990322,-0.604271888 11.7700968,-0.604271888 15.1871843,2.81281566 Z M13.065864,4.93413601 C15.0885482,6.95682027 15.2892664,10.1115291 13.6680185,12.358883 L12.6645642,11.1545857 C13.6239664,9.52540195 13.4041796,7.393772 12.0052038,5.99479618 C10.3454756,4.33506794 7.65452442,4.33506794 5.99479618,5.99479618 C4.59610977,7.39348259 4.37612456,9.52452005 5.33484057,11.1535746 L4.3312556,12.3578766 C2.71079355,10.1105873 2.91175369,6.95651833 4.93413601,4.93413601 C7.17965069,2.68862133 10.8203493,2.68862133 13.065864,4.93413601 Z" id="形状结合" fill="#000000" fill-rule="nonzero"></path>
            <path d="M7.58578644,10.4142136 C8.36683502,11.1952621 9.63316498,11.1952621 10.4142136,10.4142136 C11.1952621,9.63316498 11.1952621,8.36683502 10.4142136,7.58578644 C9.63316498,6.80473785 8.36683502,6.80473785 7.58578644,7.58578644 C6.80473785,8.36683502 6.80473785,9.63316498 7.58578644,10.4142136 Z" id="椭圆形备份-2" stroke="#000000" stroke-width="1.5" stroke-linejoin="round"></path>
            <path d="M10.4787901,10.343 L15.2068953,16.1851973 C15.3806006,16.3998623 15.3473963,16.7146986 15.1327313,16.888404 C15.0437278,16.960425 14.9327029,16.9997186 14.8182099,16.9997186 L3.1817901,16.9997186 C2.90564772,16.9997186 2.6817901,16.775861 2.6817901,16.4997186 C2.6817901,16.3852256 2.72108375,16.2742008 2.79310473,16.1851973 L7.51887045,10.3440333 C7.54049957,10.3678303 7.5628049,10.391232 7.58578644,10.4142136 C7.95626432,10.7846914 8.43592699,10.9794391 8.92119433,10.9984565 L5.40984379,15.3360904 C5.37509977,15.379021 5.38173631,15.4419887 5.42466693,15.4767328 C5.44246847,15.4911397 5.46467558,15.499 5.48757654,15.499 L12.5114589,15.499 C12.5666874,15.499 12.6114589,15.4542285 12.6114589,15.399 C12.6114589,15.3761036 12.6036016,15.3539005 12.5891999,15.3361006 L9.07880567,10.9984565 C9.56407301,10.9794391 10.0437357,10.7846914 10.4142136,10.4142136 L10.4787901,10.343 Z" id="形状结合" fill="#000000" fill-rule="nonzero"></path>
        </g>
    </g>
</svg>