<?xml version="1.0" encoding="UTF-8"?>
<svg width="20px" height="20px" viewBox="0 0 20 20" version="1.1" xmlns="http://www.w3.org/2000/svg" xmlns:xlink="http://www.w3.org/1999/xlink">
    <title>导航/输出设置</title>
    <g id="导航/输出设置" stroke="none" stroke-width="1" fill="none" fill-rule="evenodd" opacity="0.5">
        <g id="编组" transform="translate(3.000000, 3.000000)">
            <polyline id="路径" stroke="#000000" stroke-width="1.5" stroke-linejoin="round" points="12 11.875 12 14 0 14 0 0 12 0 12 1.875"></polyline>
            <rect id="矩形" fill="#000000" x="5" y="6.25" width="9" height="1.5" rx="0.2"></rect>
            <path d="M14.5928932,4.49842712 C14.7033502,4.49842712 14.7928932,4.58797017 14.7928932,4.69842712 L14.7928932,9.29842712 C14.7928932,9.40888407 14.7033502,9.49842712 14.5928932,9.49842712 L13.4928932,9.49842712 L13.4858932,9.49742712 L9.99289322,9.49842712 C9.88243627,9.49842712 9.79289322,9.40888407 9.79289322,9.29842712 L9.79289322,8.19842712 C9.79289322,8.08797017 9.88243627,7.99842712 9.99289322,7.99842712 L13.2928932,7.99742712 L13.2928932,4.69842712 C13.2928932,4.58797017 13.3824363,4.49842712 13.4928932,4.49842712 L14.5928932,4.49842712 Z" id="形状结合" fill="#000000" transform="translate(12.292893, 6.998427) rotate(-45.000000) translate(-12.292893, -6.998427) "></path>
        </g>
    </g>
</svg>