<?xml version="1.0" encoding="UTF-8"?>
<svg width="122px" height="18px" viewBox="0 0 122 18" version="1.1" xmlns="http://www.w3.org/2000/svg" xmlns:xlink="http://www.w3.org/1999/xlink">
    <title>logo</title>
    <defs>
        <linearGradient x1="50%" y1="0%" x2="50%" y2="100%" id="linearGradient-1">
            <stop stop-color="#FFFFFF" stop-opacity="0.503605769" offset="0%"></stop>
            <stop stop-color="#FFFFFF" stop-opacity="0.8" offset="100%"></stop>
        </linearGradient>
        <linearGradient x1="0%" y1="0%" x2="129.627953%" y2="0%" id="linearGradient-2">
            <stop stop-color="#FFFFFF" offset="0%"></stop>
            <stop stop-color="#FFFFFF" stop-opacity="0.503605769" offset="100%"></stop>
        </linearGradient>
        <filter id="filter-3">
            <feColorMatrix in="SourceGraphic" type="matrix" values="0 0 0 0 1.000000 0 0 0 0 1.000000 0 0 0 0 1.000000 0 0 0 1.000000 0"></feColorMatrix>
        </filter>
    </defs>
    <g id="SMore-Vilab-_运行平台_0420" stroke="none" stroke-width="1" fill="none" fill-rule="evenodd">
        <g id="设置_系统设置" transform="translate(-415.000000, -190.000000)">
            <g id="编组-20" transform="translate(133.000000, 64.000000)">
                <g id="编组-26备份" transform="translate(180.000000, 120.000000)">
                    <g id="编组-10" transform="translate(82.000000, 0.000000)">
                        <g id="logo" transform="translate(20.000000, 6.000000)">
                            <g id="logo/AI" transform="translate(10.312500, 9.000000) scale(1, -1) translate(-10.312500, -9.000000) ">
                                <g id="AI" transform="translate(10.500000, 9.000000) scale(1, -1) translate(-10.500000, -9.000000) ">
                                    <path d="M15.2445652,0 L19.5788043,0 C20.1566023,-1.06139753e-16 20.625,0.468397748 20.625,1.04619565 L20.625,17.9347826 L20.625,17.9347826 L16.2907609,17.9347826 C15.712963,17.9347826 15.2445652,17.4663849 15.2445652,16.888587 L15.2445652,0 L15.2445652,0 Z" id="矩形备份-26" fill="url(#linearGradient-1)"></path>
                                    <path d="M0,0 L4.62637962,0 C5.07669404,-2.60636364e-16 5.47648604,0.288153768 5.61888796,0.715359538 L11.3586957,17.9347826 L11.3586957,17.9347826 L6.73231603,17.9347826 C6.28200161,17.9347826 5.88220961,17.6466288 5.73980769,17.2194231 L0,0 L0,0 Z" id="矩形备份-24" fill="url(#linearGradient-2)"></path>
                                    <path d="M6.80054795,17.9341392 L6.85567576,17.9311504 C7.23964218,17.8848226 7.57156744,17.6359894 7.68747827,17.2921104 L13.2126338,0.715359538 C13.3420901,0.326990656 13.6842654,0.0535407842 14.0837371,0.00703228593 L14.2051421,0 L19.5713315,9.7255537e-14 C19.1431108,9.7255537e-14 18.7566678,0.226680816 18.6235886,0.621978279 L13.091714,17.2194231 C12.9622578,17.607792 12.6200824,17.8812418 12.2206107,17.9277503 L12.0992057,17.9347826 L6.80054795,17.9341392 Z" id="形状结合" fill="#FFFFFF"></path>
                                </g>
                            </g>
                            <g filter="url(#filter-3)" id="编组-10备份">
                                <g transform="translate(30.000000, 3.000000)">
                                    <path d="M27.0611599,2.2461046 L27.2989867,2.24719692 C30.0902978,2.31621662 31.7220768,4.3845861 31.4973386,6.86147126 C31.2726003,9.33835641 29.0545961,11.292451 26.2919265,11.2167915 C23.529257,11.141132 21.8305229,9.11301403 22.0583108,6.60251718 C22.2730823,4.23547729 24.2602914,2.3988504 26.826323,2.25453028 L27.0611599,2.2461046 Z M38.2337224,2.31695273 L38.4787248,2.31814855 L38.4787248,2.31814855 L38.7268238,2.31877703 L38.3601802,4.4921402 C36.3944404,4.4921402 35.3899522,4.96619088 35.00654,7.07728378 C34.8416313,7.984875 34.6827022,8.91099324 34.5249601,9.83179167 L34.288638,11.2060186 L31.8827647,11.2060186 L32.829285,5.89016554 C33.0100299,4.87357601 33.5233644,4.00290203 34.2520451,3.37764527 C35.3385397,2.44512365 36.4852127,2.32696095 37.752653,2.31699673 L38.2337224,2.31695273 Z M14.0306199,0.0365929054 L15.7776993,5.14304392 L19.2100287,0.0365929054 L21.9771182,0.0365929054 L20.0576098,11.2022635 L17.7330557,11.2022635 L18.9828395,3.79751351 L15.027598,9.70151351 C14.3423209,7.7175 13.658625,5.73287838 12.9740777,3.74856081 L11.7165405,11.2036014 L9.42233108,11.2036014 L11.3417939,0.0365929054 L14.0306199,0.0365929054 Z M5.91059797,0.0271976351 C7.48898285,0.0271976351 8.91747194,0.655703514 9.56921403,1.51473541 L9.66557432,1.65222973 L9.65683277,1.66042399 L7.92297973,3.03921791 C7.47716047,2.53941385 6.68345777,2.06676182 5.69470439,2.06676182 C4.81410304,2.06676182 4.21596791,2.48132432 4.21596791,3.17782095 C4.21596791,3.80789696 4.89715541,4.10637162 5.59489865,4.38829054 C7.05707939,4.96868412 8.80154392,5.58217399 8.80154392,7.52228209 C8.80154392,10.0095507 6.80778547,11.2035253 4.31568243,11.2035253 C2.57680697,11.2035253 0.973279885,10.5129176 0.20636495,9.41746476 L0.102572635,9.25824831 L1.85193243,7.86729223 C2.39664527,8.57636149 3.55541047,9.06444426 4.49847973,9.06444426 C5.47865878,9.06444426 6.17658446,8.61669426 6.17658446,7.88711655 C6.17658446,7.0745777 5.26267399,6.85906419 4.19932095,6.46104223 C2.98643412,6.04646453 1.59091723,5.20082939 1.59091723,3.5094223 C1.59091723,1.43667061 3.33545777,0.0271976351 5.91059797,0.0271976351 Z M66.7448716,3.19159291 L65.368277,11.2036014 L63.0878716,11.2036014 L64.4648716,3.19159291 L66.7448716,3.19159291 Z M71.0884155,0.0365929054 L69.6831151,8.2120574 C69.6262197,8.54305189 69.8484208,8.8574988 70.1794153,8.91439425 C70.2134421,8.9202432 70.2479052,8.92318368 70.282431,8.92318383 L73.1156385,8.92319595 L72.7217413,11.2036014 L69.5943668,11.2036014 C68.3349337,11.2036014 67.3139614,10.1826291 67.3139614,8.92319595 C67.3139614,8.7937249 67.3249875,8.66448904 67.3469203,8.53688925 L68.8080101,0.0365929054 L71.0884155,0.0365929054 Z M47.7374338,7.14482401 L47.6936245,7.35576689 L41.5704775,7.35576689 C41.4873187,8.6282027 42.501187,9.29332095 43.6143593,9.29332095 C44.3758677,9.29332095 45.0608442,8.9611969 45.6687266,8.44159013 L45.8326008,8.29533953 L46.9704623,9.67842061 C45.8739218,10.783353 44.42854,11.2019291 43.2488407,11.2019291 C39.5587191,11.2019291 38.1719437,6.84497128 40.1344606,4.19290541 C42.8338353,0.545037013 48.6157143,2.47446506 47.7374338,7.14482401 Z M80.8284375,2.47606419 C81.7135084,2.7101098 82.1884865,3.15889358 82.333201,4.06917061 C82.3607609,4.28995224 82.339448,4.64794189 82.2692624,5.14313956 C82.2533825,5.2544746 82.2297461,5.38487597 82.2018041,5.54111149 C81.8864848,7.30495946 81.5761672,9.11513007 81.2614865,10.8791453 L81.0658429,10.9035456 C79.4808699,11.1016064 78.2284713,11.2005 77.2164426,11.2005 C76.251223,11.2005 75.5164155,10.9528024 75.0101807,10.5666233 C73.5732973,9.47056926 74.0725389,7.48439696 75.6618142,6.80471453 C76.0480505,6.63959708 76.5574798,6.5196629 77.0882774,6.39918366 L77.6224265,6.27682909 C78.4230205,6.08794376 79.1953247,5.86353577 79.5956807,5.44927196 C79.755902,5.26746284 79.820848,5.06801858 79.8103733,4.89628885 C79.7878277,4.52050845 79.3645693,4.24120439 78.5080642,4.31390372 C77.709223,4.38161655 76.5899848,4.81642905 75.8014054,5.13795101 L75.9212939,4.43785135 L76.1897584,2.8692973 C77.1617128,2.55402365 79.3436655,2.08339358 80.8284375,2.47606419 Z M86.5951723,0.0365929054 L86.2097383,2.65022692 C86.2780323,2.62062473 86.3477283,2.59355149 86.4188264,2.56900718 C86.9066087,2.40061613 87.4202147,2.31642061 87.9596446,2.31642061 C88.5564606,2.31642061 89.0729359,2.44126225 89.5090707,2.69094552 C89.9452055,2.9406288 90.3009996,3.2745076 90.5764532,3.69258193 C90.8519067,4.11065625 91.0384117,4.58969975 91.1359682,5.12971242 C91.2335246,5.66972508 91.2421325,6.2358674 91.1617919,6.82813936 C91.0699741,7.46686402 90.8892077,8.05332939 90.6194928,8.58753547 C90.3497779,9.12174155 90.0083302,9.58336529 89.5951499,9.97240667 C89.1819696,10.3614481 88.7056646,10.6633906 88.1662347,10.8782344 C87.7167099,11.0572708 87.2392889,11.1617088 86.733972,11.1915482 L86.4275946,11.2 L86.2952472,11.199887 C86.2483845,11.1994783 86.2010866,11.1988653 86.1533451,11.1980479 L85.9599919,11.1936882 L85.7617828,11.1871481 L85.5585946,11.1784273 C85.5243082,11.1767921 85.4898092,11.175066 85.455095,11.173249 L85.2442077,11.1612563 L85.0280339,11.147082 L84.917926,11.1391766 L84.6935917,11.1217291 L84.4636632,11.1020991 C84.4248687,11.0986455 84.3858361,11.0951009 84.3465627,11.0914654 L84.1080123,11.0685608 L83.8635602,11.0434727 L83.6130834,11.0162007 L83.4855473,11.0017457 L83.2258027,10.9711972 L82.9597257,10.938464 L82.6871935,10.9035456 L82.4999356,10.8791453 L83.0527885,7.60519308 L84.3451014,0.0365929054 L86.5951723,0.0365929054 Z M56.5063936,6.84607926e-12 L58.1781561,7.37617232 L61.2297213,6.84607926e-12 L63.8447838,6.84607926e-12 L58.9097037,11.1992796 L56.697492,11.1992796 L53.9695946,6.84607926e-12 L56.5063936,6.84607926e-12 Z M79.3578801,7.59583277 C78.7213429,7.65992736 76.3724797,7.93641892 76.2994003,8.80829392 C76.2207111,9.74741047 78.5639189,9.39437331 79.0751858,9.31271959 L79.3578801,7.59583277 Z M26.9461418,4.51186634 C25.5218675,4.47482691 24.7599656,5.53576444 24.6541296,6.68588366 C24.5482936,7.83600289 25.2013612,8.94938633 26.5304806,8.98527681 C27.8596,9.02116728 28.7865031,8.05199451 28.9133102,6.79349701 C29.0401173,5.5349995 28.3704161,4.54890578 26.9461418,4.51186634 Z M86.7305791,4.51131081 C86.4335387,4.51131081 86.1616465,4.55353467 85.9149024,4.6379824 L85.3142681,8.70193824 C85.5515515,8.80080897 85.8308968,8.85024434 86.1523038,8.85024434 C86.7986115,8.85024434 87.3258624,8.65034767 87.7340568,8.25055434 C88.1422511,7.85076101 88.3917031,7.32750208 88.482413,6.68077757 C88.5731228,6.03405307 88.4654049,5.51079414 88.1592592,5.11100081 C87.8531134,4.71120748 87.3768867,4.51131081 86.7305791,4.51131081 Z M41.8721414,5.58701843 L41.8196954,5.74234966 L45.5337309,5.74234966 C45.611543,3.78334498 42.5979065,3.67281272 41.8721414,5.58701843 Z M67.2877399,0.0365929054 L66.9018716,2.27959291 L64.6218716,2.27959291 L65.0073345,0.0365929054 L67.2877399,0.0365929054 Z" id="形状结合" fill="#FFFFFF"></path>
                                </g>
                            </g>
                        </g>
                    </g>
                </g>
            </g>
        </g>
    </g>
</svg>