<?xml version="1.0" encoding="UTF-8"?>
<svg width="20px" height="20px" viewBox="0 0 20 20" version="1.1" xmlns="http://www.w3.org/2000/svg" xmlns:xlink="http://www.w3.org/1999/xlink">
    <title>开启</title>
    <g id="SMore-ViMo-_运行平台_UI-1.0" stroke="none" stroke-width="1" fill="none" fill-rule="evenodd">
        <g id="设置_相机设置03" transform="translate(-473.000000, -253.000000)">
            <g id="编组-20" transform="translate(133.000000, 64.000000)">
                <g id="编组-26" transform="translate(160.000000, 50.000000)">
                    <g id="矩形-+-编组-蒙版" transform="translate(160.000000, 134.000000)">
                        <g id="编组">
                            <g id="暂停" transform="translate(20.000000, 5.000000)">
                                <rect id="矩形备份-5" fill="#D8D8D8" opacity="0" x="0" y="0" width="20" height="20" rx="1.66666667"></rect>
                                <rect id="矩形" fill="#000000" fill-rule="nonzero" opacity="0" x="3.33333333" y="3.33333333" width="13.3333333" height="13.3333333"></rect>
                                <g transform="translate(3.333333, 2.333333)" fill-rule="nonzero">
                                    <rect id="矩形" fill="#000000" opacity="0" x="0" y="1" width="13.3333333" height="13.3333333"></rect>
                                    <path d="M0.559210667,0.707661875 C0.453562294,0.707661875 0.34766062,0.747994531 0.266968667,0.828699818 C0.186276714,0.90913862 0.145930667,1.01502682 0.145930667,1.12068852 L0.145930667,14.2894328 C0.145930667,14.394828 0.186276701,14.5007295 0.266968667,14.5814215 C0.34766062,14.6618469 0.453562294,14.7022062 0.559210667,14.7022062 L4.60595767,14.7022062 C4.71160604,14.7022062 4.81750771,14.6618603 4.89819967,14.5814215 C4.97863847,14.5007295 5.01897067,14.394828 5.01897067,14.2894328 L5.01897067,1.1206752 C5.01897067,1.01504014 4.97862514,0.909125286 4.89819967,0.828686497 C4.8175077,0.748007852 4.71160604,0.707661875 4.60595767,0.707661875 L0.559210667,0.707661875 Z M12.7277017,0.707648542 L8.68095367,0.707648542 C8.57530529,0.707648542 8.46940362,0.747994518 8.38871167,0.828686484 C8.30803303,0.909125286 8.26767367,1.01504013 8.26767367,1.12067518 L8.26767367,14.2894194 C8.26767367,14.3948146 8.30803302,14.5007162 8.38871167,14.5814081 C8.46940362,14.6618336 8.57530529,14.7021796 8.68095367,14.7021796 L12.7277017,14.7021796 C12.83335,14.7021796 12.9392507,14.6618336 13.0199427,14.5814081 C13.1006346,14.5007162 13.1407147,14.3948146 13.1407147,14.2894194 L13.1407147,1.12067518 C13.1407147,1.01502681 13.1006213,0.909138607 13.0199427,0.828686484 C12.9392507,0.747994531 12.83335,0.707648542 12.7277017,0.707648542 Z" id="形状" fill="#FFFFFF" opacity="0.400000006"></path>
                                </g>
                            </g>
                        </g>
                    </g>
                </g>
            </g>
        </g>
    </g>
</svg>