<?xml version="1.0" encoding="UTF-8"?>
<svg width="20px" height="20px" viewBox="0 0 20 20" version="1.1" xmlns="http://www.w3.org/2000/svg" xmlns:xlink="http://www.w3.org/1999/xlink">
    <title>导航栏/重置_不可点击</title>
    <g id="导航栏/重置_不可点击" stroke="none" stroke-width="1" fill="none" fill-rule="evenodd">
        <rect id="矩形" x="0" y="0" width="20" height="20" rx="1.5"></rect>
        <g id="编组" opacity="0.400000006" transform="translate(3.250000, 2.500000)" fill="#FFFFFF" fill-rule="nonzero">
            <path d="M6.75,9.76996262e-15 C10.4779221,9.76996262e-15 13.5,3.02207794 13.5,6.75 C13.5,8.43955811 12.8792478,9.98413178 11.8533694,11.1680949 L14.4397862,13.7541261 C14.7326795,14.0470193 14.7326795,14.521893 14.4397862,14.8147862 C14.146893,15.1076795 13.6720193,15.1076795 13.3791261,14.8147862 L10.7513014,12.1867332 C9.63161875,13.0121714 8.24777862,13.5 6.75,13.5 C3.02207794,13.5 -2.31814568e-13,10.4779221 -2.31814568e-13,6.75 C-2.31814568e-13,3.02207794 3.02207794,9.76996262e-15 6.75,9.76996262e-15 Z M6.75,1.5 C3.85050506,1.5 1.5,3.85050506 1.5,6.75 C1.5,9.64949494 3.85050506,12 6.75,12 C9.64949494,12 12,9.64949494 12,6.75 C12,3.85050506 9.64949494,1.5 6.75,1.5 Z" id="形状结合"></path>
            <path d="M5.25920834,8.67336284 L5.25920834,4.60483391 C5.25920834,4.32869154 5.03535071,4.10483391 4.75920834,4.10483391 C4.74037228,4.10483391 4.72155128,4.1058983 4.70283533,4.10802199 L3.78425904,4.2122524 C3.56512707,4.2371172 3.39957481,4.42251695 3.39957481,4.64305511 C3.39957481,4.8493428 3.56680402,5.01657201 3.77309171,5.01657201 C3.77755517,5.01657201 3.78201826,5.01649201 3.78647885,5.01633203 L4.24879167,4.99975173 L4.24879167,4.99975173 L4.24879167,8.67336284 C4.24879167,8.94950522 4.47264929,9.17336284 4.74879167,9.17336284 L4.75920834,9.17336284 C5.03535071,9.17336284 5.25920834,8.94950522 5.25920834,8.67336284 Z M7.18371972,5.44419617 C7.18371972,5.19873629 6.98473516,4.99975173 6.73927527,4.99975173 L6.61427527,4.99975173 C6.36881539,4.99975173 6.16983083,5.19873629 6.16983083,5.44419617 C6.16983083,5.68965606 6.36881539,5.88864062 6.61427527,5.88864062 L6.73927527,5.88864062 C6.98473516,5.88864062 7.18371972,5.68965606 7.18371972,5.44419617 Z M7.18371972,8.48586284 C7.18371972,8.24040295 6.98473516,8.0414184 6.73927527,8.0414184 L6.61427527,8.0414184 C6.36881539,8.0414184 6.16983083,8.24040295 6.16983083,8.48586284 C6.16983083,8.73132273 6.36881539,8.93030729 6.61427527,8.93030729 L6.73927527,8.93030729 C6.98473516,8.93030729 7.18371972,8.73132273 7.18371972,8.48586284 Z M9.582125,8.67336284 L9.582125,4.60483391 C9.582125,4.32869154 9.35826738,4.10483391 9.082125,4.10483391 C9.06328895,4.10483391 9.04446795,4.1058983 9.025752,4.10802199 L8.10717571,4.2122524 C7.88804373,4.2371172 7.72249148,4.42251695 7.72249148,4.64305511 C7.72249148,4.8493428 7.88972069,5.01657201 8.09600838,5.01657201 C8.10047183,5.01657201 8.10493493,5.01649201 8.10939551,5.01633203 L8.57170834,4.99975173 L8.57170834,4.99975173 L8.57170834,8.67336284 C8.57170834,8.94950522 8.79556596,9.17336284 9.07170834,9.17336284 L9.082125,9.17336284 C9.35826738,9.17336284 9.582125,8.94950522 9.582125,8.67336284 Z" id="1:1"></path>
        </g>
    </g>
</svg>