<?xml version="1.0" encoding="UTF-8"?>
<svg width="140px" height="110px" viewBox="0 0 140 110" version="1.1" xmlns="http://www.w3.org/2000/svg" xmlns:xlink="http://www.w3.org/1999/xlink">
    <!-- Generator: Sketch 63.1 (92452) - https://sketch.com -->
    <title>警告</title>
    <desc>Created with Sketch.</desc>
    <g id="警告" stroke="none" stroke-width="1" fill="none" fill-rule="evenodd" stroke-opacity="0.03">
        <g stroke="#000000" stroke-width="2">
            <path d="M73.7581284,8.99540365 C72.1273336,7.95762514 70.2302832,7.67910323 68.4814868,8.06772465 C66.7326904,8.45634607 65.1321481,9.51211082 64.0943696,11.1429056 L8.6677549,98.2418716 C7.95301892,99.3650281 7.57338532,100.668712 7.57338532,102 C7.57338532,103.932997 8.356887,105.682997 9.62363785,106.949747 C10.8903887,108.216498 12.6403887,109 14.5733853,109 L125.426615,109 C126.757903,109 128.061587,108.620366 129.184743,107.90563 C130.815538,106.867852 131.871303,105.26731 132.259924,103.518513 C132.648546,101.769717 132.370024,99.8726664 131.332245,98.2418716 L75.9056304,11.1429056 C75.3555796,10.27854 74.6224941,9.5454545 73.7581284,8.99540365 Z" id="矩形" fill="#FFCD30"></path>
            <path d="M70,82 C68.0670034,82 66.3170034,82.7835017 65.0502525,84.0502525 C63.7835017,85.3170034 63,87.0670034 63,89 C63,90.9329966 63.7835017,92.6829966 65.0502525,93.9497475 C66.3170034,95.2164983 68.0670034,96 70,96 C71.9329966,96 73.6829966,95.2164983 74.9497475,93.9497475 C76.2164983,92.6829966 77,90.9329966 77,89 C77,87.0670034 76.2164983,85.3170034 74.9497475,84.0502525 C73.6829966,82.7835017 71.9329966,82 70,82 Z M70,36 C69.7668495,36 69.5338305,36.0110711 69.3017303,36.0331759 C67.2771009,36.2259977 65.5222994,37.2212084 64.3218608,38.6743709 C63.1214221,40.1275335 62.4753463,42.0386479 62.6681682,44.0632774 L65.7200772,76.1083227 C65.825151,77.2115969 66.3409984,78.1845163 67.1076441,78.881617 C67.8742897,79.5787178 68.8917335,80 70,80 C71.1082665,80 72.1257103,79.5787178 72.8923559,78.881617 C73.6590016,78.1845163 74.174849,77.2115969 74.2799228,76.1083227 L77.3318318,44.0632774 C77.3539366,43.8311772 77.3650077,43.5981582 77.3650077,43.3650077 C77.3650077,41.331217 76.5406511,39.4899651 75.2078469,38.1571608 C73.8750426,36.8243566 72.0337907,36 70,36 Z" id="形状结合" fill="#F44747"></path>
        </g>
    </g>
</svg>