<?xml version="1.0" encoding="UTF-8"?>
<svg width="16px" height="16px" viewBox="0 0 16 16" version="1.1" xmlns="http://www.w3.org/2000/svg" xmlns:xlink="http://www.w3.org/1999/xlink">
    <title>新增</title>
    <g id="SMore-Vilab-_运行平台_0420" stroke="none" stroke-width="1" fill="none" fill-rule="evenodd">
        <g id="设置_输出设置" transform="translate(-453.000000, -126.000000)" fill="#006DB2">
            <g id="编组-20" transform="translate(133.000000, 64.000000)">
                <g id="编组-26" transform="translate(160.000000, 50.000000)">
                    <path d="M168,12 C168.276142,12 168.5,12.2238576 168.5,12.5 L168.5,19.249 L175.5,19.25 C175.776142,19.25 176,19.4738576 176,19.75 L176,20.25 C176,20.5261424 175.776142,20.75 175.5,20.75 L168.5,20.749 L168.5,27.5 C168.5,27.7761424 168.276142,28 168,28 L167.5,28 C167.223858,28 167,27.7761424 167,27.5 L167,20.749 L160.5,20.75 C160.223858,20.75 160,20.5261424 160,20.25 L160,19.75 C160,19.4738576 160.223858,19.25 160.5,19.25 L167,19.249 L167,12.5 C167,12.2238576 167.223858,12 167.5,12 L168,12 Z" id="新增"></path>
                </g>
            </g>
        </g>
    </g>
</svg>