<?xml version="1.0" encoding="UTF-8"?>
<svg width="16px" height="16px" viewBox="0 0 16 16" version="1.1" xmlns="http://www.w3.org/2000/svg" xmlns:xlink="http://www.w3.org/1999/xlink">
    <title>追加</title>
    <g id="SMore-Vilab-_运行平台_0420" stroke="none" stroke-width="1" fill="none" fill-rule="evenodd">
        <g id="设置_输出设置_编辑1" transform="translate(-657.000000, -386.000000)" fill-rule="nonzero">
            <g id="弹框备份-14" transform="translate(283.000000, 84.000000)">
                <g id="按钮备份" transform="translate(360.000000, 298.000000)">
                    <g id="追加" transform="translate(14.000000, 4.000000)">
                        <rect id="矩形" fill="#000000" opacity="0" x="0" y="0" width="16" height="16"></rect>
                        <path d="M8.35490625,9.35329688 C8.25692187,9.45128125 8.12842187,9.50015625 8,9.49995376 C7.8715625,9.50015625 7.74307812,9.45128125 7.64509375,9.35329688 L1.14670312,2.85490625 C0.951140625,2.65934375 0.951140625,2.34226563 1.14670312,2.14670313 C1.24428125,2.049125 1.37210937,2.00025 1.5,2 L1.5,2 L14.5,2 L14.5,2 C14.6278906,2.00025 14.7557187,2.049125 14.8532969,2.14670312 C15.0488594,2.34226562 15.0488594,2.65934375 14.8532969,2.85490625 L8.35490625,9.35329688 Z" id="路径" fill="#006DB2"></path>
                        <path d="M1.5,6.5 L3.79179687,6.5 L12.2082031,6.5 L14.5,6.5 C14.7761406,6.5 15,6.72385937 15,7 C15,7.12892187 14.9510781,7.25710937 14.8532812,7.35490625 L8.35490625,13.8532969 C8.25692187,13.9512813 8.12842187,14.0001562 8,13.9999556 C7.8715625,14.0001562 7.74307812,13.9512813 7.64509375,13.8532969 L1.14670312,7.35490625 C0.951140625,7.15934375 0.951140625,6.84226562 1.14670312,6.64670313 C1.24428125,6.549125 1.37210937,6.50026562 1.5,6.5 Z" id="路径" fill="#006DB2" opacity="0.600000024"></path>
                    </g>
                </g>
            </g>
        </g>
    </g>
</svg>