<?xml version="1.0" encoding="UTF-8"?>
<svg width="20px" height="20px" viewBox="0 0 20 20" version="1.1" xmlns="http://www.w3.org/2000/svg" xmlns:xlink="http://www.w3.org/1999/xlink">
    <title>复制</title>
    <g id="复制" stroke="none" stroke-width="1" fill="none" fill-rule="evenodd">
        <rect id="矩形" stroke="#7F7F7F" stroke-width="1.5" stroke-linejoin="round" x="2" y="5" width="13" height="13"></rect>
        <path d="M9.05,8 C9.16045695,8 9.25,8.08954305 9.25,8.2 L9.25,10.75 L11.8,10.75 C11.9104569,10.75 12,10.8395431 12,10.95 L12,12.05 C12,12.1604569 11.9104569,12.25 11.8,12.25 L9.249,12.25 L9.25,14.8 C9.25,14.9104569 9.16045695,15 9.05,15 L7.95,15 C7.83954305,15 7.75,14.9104569 7.75,14.8 L7.749,12.25 L5.2,12.25 C5.08954305,12.25 5,12.1604569 5,12.05 L5,10.95 C5,10.8395431 5.08954305,10.75 5.2,10.75 L7.75,10.75 L7.75,8.2 C7.75,8.08954305 7.83954305,8 7.95,8 L9.05,8 Z" id="形状结合" fill="#7F7F7F"></path>
        <path d="M18,1.25 C18.4142136,1.25 18.75,1.58578644 18.75,2 L18.75,2 L18.75,15 C18.75,15.4142136 18.4142136,15.75 18,15.75 L18,15.75 L15.75,15.75 L15.75,14.25 L17.25,14.25 L17.25,2.75 L5.75,2.75 L5.75,4.25 L4.25,4.25 L4.25,2 C4.25,1.62030423 4.53215388,1.30650904 4.89822944,1.25684662 L5,1.25 Z" id="形状结合" fill="#7F7F7F" fill-rule="nonzero"></path>
    </g>
</svg>