<?xml version="1.0" encoding="UTF-8"?>
<svg width="20px" height="20px" viewBox="0 0 20 20" version="1.1" xmlns="http://www.w3.org/2000/svg" xmlns:xlink="http://www.w3.org/1999/xlink">
    <title>编辑</title>
    <g id="编辑" stroke="none" stroke-width="1" fill="none" fill-rule="evenodd">
        <g id="编组" transform="translate(10.207107, 6.792893) rotate(-135.000000) translate(-10.207107, -6.792893) translate(8.707107, 0.292893)" stroke="#7F7F7F" stroke-linejoin="round" stroke-width="1.5">
            <rect id="矩形" x="-2.72848411e-12" y="3" width="3" height="10"></rect>
            <polygon id="矩形备份" transform="translate(1.500000, 1.500000) scale(1, -1) translate(-1.500000, -1.500000) " points="0 0 3 0 1.5 3"></polygon>
        </g>
        <path d="M5.77442827,18.4093008 L5.77442827,13 L4.46075884,13 C4.29183992,13.3337731 4.05795218,13.614336 3.75909563,13.8416887 C3.46023909,14.0690413 3.04054054,14.2637423 2.5,14.4257916 L2.5,15.637533 C2.86642412,15.5335312 3.17112786,15.4246922 3.41411123,15.3110158 C3.65709459,15.1973395 3.90852391,15.0485928 4.16839917,14.8647757 L4.16839917,18.4093008 L5.77442827,18.4093008 Z M12.147869,18.4093008 L12.147869,17.2048153 L9.66865904,17.2048153 C9.81418919,17.0717898 9.94087838,16.9641601 10.0487266,16.8819261 C10.1565748,16.7996922 10.3703222,16.6557828 10.6899688,16.4501979 C11.2279106,16.0970756 11.5988825,15.7729771 11.8028846,15.4779024 C12.0068867,15.1828276 12.1088877,14.873241 12.1088877,14.5491425 C12.1088877,14.2443931 12.0198805,13.9692722 11.8418659,13.7237797 C11.6638514,13.4782872 11.4195686,13.2962841 11.1090177,13.1777704 C10.7984667,13.0592568 10.3638254,13 9.80509356,13 C9.26975052,13 8.85070166,13.0622801 8.54794699,13.1868404 C8.24519231,13.3114006 8.01065489,13.4903804 7.84433472,13.7237797 C7.67801455,13.957179 7.56366944,14.2818821 7.50129938,14.6978892 L9.09173597,14.8176121 C9.13591476,14.5177001 9.22232328,14.3084872 9.35096154,14.1899736 C9.47959979,14.07146 9.64527027,14.0122032 9.84797297,14.0122032 C10.0428794,14.0122032 10.2046518,14.069646 10.33329,14.1845317 C10.4619283,14.2994173 10.5262474,14.4378848 10.5262474,14.599934 C10.5262474,14.7498901 10.4612786,14.9083113 10.331341,15.0751979 C10.2014033,15.2420844 9.90384615,15.4863676 9.43866944,15.8080475 C8.67723493,16.3328936 8.1581341,16.7882036 7.88136694,17.1739776 C7.60459979,17.5597515 7.43892931,17.9715259 7.38435551,18.4093008 L12.147869,18.4093008 Z M15.1962058,18.5 C15.7289501,18.5 16.1590437,18.423208 16.4864865,18.269624 C16.8139293,18.11604 17.0647089,17.8971526 17.2388254,17.6129617 C17.4129418,17.3287709 17.5,17.0318821 17.5,16.7222955 C17.5,16.4755937 17.4473753,16.2633575 17.3421258,16.0855871 C17.2368763,15.9078166 17.0893971,15.7645119 16.8996881,15.6556728 C16.7827443,15.5879507 16.6138254,15.5286939 16.3929314,15.4779024 C16.6658004,15.3376209 16.8698025,15.1743624 17.0049376,14.9881266 C17.1400728,14.8018909 17.2076403,14.5938874 17.2076403,14.3641161 C17.2076403,13.9722955 17.0413202,13.6469877 16.7086798,13.3881926 C16.3760395,13.1293975 15.8367983,13 15.0909563,13 C14.4412682,13 13.9390593,13.1185136 13.5843295,13.3555409 C13.2295998,13.5925682 12.9898649,13.9335972 12.8651247,14.378628 L14.3659044,14.6289578 C14.4074844,14.3653254 14.4867464,14.1809037 14.6036902,14.0756926 C14.7206341,13.9704815 14.8726611,13.917876 15.0597713,13.917876 C15.241684,13.917876 15.3846154,13.9662489 15.4885655,14.0629947 C15.5925156,14.1597405 15.6444906,14.2891381 15.6444906,14.4511873 C15.6444906,14.6204925 15.574974,14.7668206 15.4359407,14.8901715 C15.2969075,15.0135224 15.1234407,15.0751979 14.9155405,15.0751979 C14.8661642,15.0751979 14.7972973,15.0691513 14.7089397,15.057058 L14.627079,16.1127968 C14.8453742,16.0547493 15.0168919,16.0257256 15.141632,16.0257256 C15.3755198,16.0257256 15.5606809,16.0934477 15.6971154,16.2288918 C15.8335499,16.364336 15.9017672,16.555409 15.9017672,16.8021108 C15.9017672,17.0439754 15.8309511,17.237467 15.6893191,17.3825858 C15.5476871,17.5277045 15.3703222,17.6002639 15.1572245,17.6002639 C14.9545218,17.6002639 14.787552,17.542821 14.656315,17.4279354 C14.525078,17.3130497 14.4282744,17.1068602 14.3659044,16.8093668 L12.7793659,17.005277 C12.883316,17.3366315 13.0320946,17.6117524 13.2257017,17.8306398 C13.4193087,18.0495273 13.6661902,18.2158091 13.9663462,18.3294855 C14.2665021,18.4431618 14.6764553,18.5 15.1962058,18.5 Z" id="123" fill="#7F7F7F" fill-rule="nonzero"></path>
    </g>
</svg>